Coordinates
version=1
nRows=12
nColumns=33
inDegrees=yes

Units are S.I. units (second, meters, Newtons, ...)
Angles are in degrees.

endheader
time	ground_thorax_rot_x	ground_thorax_rot_y	ground_thorax_rot_z	ground_thorax_tx	ground_thorax_ty	ground_thorax_tz	clav_prot_r	clav_elev_r	scapula_abduction_r	scapula_elevation_r	scapula_upward_rot_r	scapula_winging_r	shoulder_elv_r	plane_of_elev_r	axial_rot_r	elbow_flexion_r	pro_sup_r	wrist_flex_r	wrist_dev_r	clav_prot_l	clav_elev_l	scapula_abduction_l	scapula_elevation_l	scapula_upward_rot_l	scapula_winging_l	shoulder_elv_l	plane_of_elev_l	axial_rot_l	elbow_flexion_l	pro_sup_l	wrist_flex_l	wrist_dev_l	
2.2400	5.100472	-1.829402	12.296761	-0.115101	1.043999	0.012698	14.382114	-9.740650	30.166222	-6.579179	10.213026	-9.327986	57.320232	13.898837	-22.422181	132.340663	52.398850	38.187373	-24.999999	9.342601	-8.854817	-14.801381	0.143524	-6.854675	2.208082	62.092505	48.115086	3.354257	118.001007	34.956903	-8.007710	-16.766563	
2.2500	5.049441	-1.721045	12.338973	-0.114927	1.044227	0.012721	14.406799	-9.668174	30.333439	-6.591718	10.428208	-9.428797	57.644472	13.968172	-22.192664	132.322827	52.050328	37.407275	-24.999999	9.345730	-8.810227	-14.783026	0.077333	-6.911419	2.212630	61.941811	48.277468	2.989987	117.944059	35.298904	-8.269140	-17.001882	
2.2600	4.981825	-1.595514	12.389884	-0.114786	1.044494	0.012711	14.428924	-9.580200	30.524494	-6.606853	10.689824	-9.545075	58.013912	14.009771	-21.988422	132.275603	51.596559	36.500702	-24.999998	9.365061	-8.761179	-14.793962	0.008697	-6.964266	2.230971	61.773922	48.461362	2.627560	117.854398	35.644001	-8.559660	-17.244659	
2.2700	4.897940	-1.453412	12.448691	-0.114685	1.044801	0.012675	14.443002	-9.465379	30.735920	-6.617692	11.006299	-9.679654	58.411403	14.014667	-21.847824	132.184828	50.989208	35.492599	-24.999997	9.410048	-8.709121	-14.851548	-0.059698	-7.010214	2.269889	61.608665	48.652836	2.292685	117.737356	35.946669	-8.856345	-17.468443	
2.2800	4.795978	-1.299636	12.505797	-0.114627	1.045143	0.012620	14.432606	-9.291303	30.960992	-6.607734	11.410915	-9.842582	58.779542	14.028755	-21.825115	131.996827	50.458544	34.603677	-24.999995	9.474762	-8.653973	-14.947749	-0.125456	-7.043645	2.326317	61.467310	48.844750	1.986328	117.596168	36.210197	-9.159783	-17.678761	
2.2900	4.681545	-1.137825	12.563569	-0.114616	1.045525	0.012543	14.397063	-9.053960	31.202520	-6.575119	11.909067	-10.035986	59.114840	14.063537	-21.914248	131.682762	50.015726	33.844456	-24.999992	9.556029	-8.597598	-15.075616	-0.188713	-7.068688	2.396750	61.344298	49.032739	1.705791	117.435494	36.439359	-9.473509	-17.879889	
2.3000	4.561812	-0.977089	12.613633	-0.114648	1.045939	0.012453	14.328550	-8.731754	31.457170	-6.505726	12.514830	-10.266658	59.388324	14.165362	-22.103316	131.196899	49.825030	33.340848	-24.999985	9.635357	-8.542476	-15.206750	-0.243057	-7.076416	2.469056	61.231689	49.218191	1.443492	117.254656	36.665942	-9.815660	-18.093020	
2.3100	4.441992	-0.822239	12.665937	-0.114728	1.046393	0.012363	14.234971	-8.337757	31.726413	-6.402811	13.206906	-10.529173	59.616091	14.327043	-22.349696	130.545850	49.761184	33.006029	-24.999973	9.709803	-8.494381	-15.334347	-0.285588	-7.072129	2.538408	61.125817	49.385681	1.195637	117.064999	36.879769	-10.175989	-18.313086	
2.3200	4.331323	-0.673971	12.705827	-0.114842	1.046838	0.012290	14.117251	-7.824358	32.029077	-6.233591	14.010791	-10.850317	59.768387	14.552441	-22.641573	129.739860	49.805047	32.839566	-24.999952	9.774085	-8.439009	-15.459468	-0.316452	-7.026909	2.611240	61.014965	49.535835	0.964650	116.859993	37.100171	-10.616544	-18.576044	
2.3300	4.229271	-0.531642	12.746787	-0.115012	1.047307	0.012231	13.983690	-7.230346	32.368460	-6.023897	14.907054	-11.212995	59.881549	14.812803	-22.954499	128.773287	49.875544	32.757411	-24.999915	9.832671	-8.392221	-15.583606	-0.329630	-6.959663	2.682084	60.896521	49.657184	0.739463	116.645378	37.322767	-11.124041	-18.881952	
2.3400	4.141372	-0.390908	12.769444	-0.115225	1.047782	0.012188	13.828384	-6.546030	32.749395	-5.771163	15.915930	-11.620696	59.970201	15.102939	-23.280568	127.638443	49.972524	32.758004	-24.999848	9.883172	-8.353274	-15.708370	-0.319062	-6.855218	2.752680	60.771393	49.759244	0.520886	116.415499	37.557219	-11.716092	-19.240225	
2.3500	4.069781	-0.254569	12.782466	-0.115499	1.048290	0.012168	13.650331	-5.783185	33.174840	-5.485292	17.040828	-12.064783	60.020441	15.403850	-23.612516	126.322532	50.088144	32.854564	-24.999727	9.925510	-8.341401	-15.833148	-0.269304	-6.718172	2.816271	60.639918	49.818512	0.303814	116.171071	37.804125	-12.407183	-19.671371	
